<svg width="48" height="71" viewBox="0 0 48 71" fill="none" xmlns="http://www.w3.org/2000/svg">
<path d="M45.5654 18.2832H37.5535V15.2597C37.5535 6.84298 31.4718 0 23.9912 0C16.5105 0 10.4286 6.84298 10.4286 15.2597V18.2832H2.4168C1.07998 18.2832 0 19.3619 0 20.6968V62.285C0 66.9441 3.79778 70.7368 8.46333 70.7368H39.5365C44.2022 70.7368 48 66.9441 48 62.285V20.6968C48 19.3619 46.9197 18.2832 45.583 18.2832H45.5654ZM15.2445 15.2597C15.2445 9.50413 19.1663 4.82729 23.9822 4.82729C28.7981 4.82729 32.7199 9.51304 32.7199 15.2597V18.2832H15.2445V15.2597ZM43.1487 62.285C43.1487 64.283 41.5198 65.9097 39.5188 65.9097H8.44548C6.44464 65.9097 4.81575 64.283 4.81575 62.285V23.1103H10.4197V28.6802C10.4197 30.0151 11.4997 31.0938 12.8365 31.0938C14.1733 31.0938 15.2533 30.0151 15.2533 28.6802V23.1103H32.7289V28.6802C32.7289 30.0151 33.8088 31.0938 35.1455 31.0938C36.4822 31.0938 37.5625 30.0151 37.5625 28.6802V23.1103H43.1664V62.285H43.1487Z" fill="#EFEAE2"/>
</svg>
