<svg width="20" height="31" viewBox="0 0 20 31" fill="none" xmlns="http://www.w3.org/2000/svg">
<path opacity="0.8" d="M18.9856 8.38118H15.6473V7.12137C15.6473 3.61442 13.1132 0.763184 9.99631 0.763184C6.87939 0.763184 4.34526 3.61442 4.34526 7.12137V8.38118H1.007C0.449993 8.38118 0 8.83063 0 9.38683V26.7153C0 28.6566 1.58241 30.2369 3.52639 30.2369H16.4736C18.4176 30.2369 20 28.6566 20 26.7153V9.38683C20 8.83063 19.5499 8.38118 18.9929 8.38118H18.9856ZM6.35188 7.12137C6.35188 4.72324 7.98597 2.77455 9.9926 2.77455C11.9992 2.77455 13.6333 4.72695 13.6333 7.12137V8.38118H6.35188V7.12137ZM17.9786 26.7153C17.9786 27.5478 17.2999 28.2256 16.4662 28.2256H3.51895C2.68527 28.2256 2.00656 27.5478 2.00656 26.7153V10.3925H4.34154V12.7133C4.34154 13.2695 4.79153 13.7189 5.34854 13.7189C5.90555 13.7189 6.35554 13.2695 6.35554 12.7133V10.3925H13.637V12.7133C13.637 13.2695 14.087 13.7189 14.644 13.7189C15.2009 13.7189 15.651 13.2695 15.651 12.7133V10.3925H17.986V26.7153H17.9786Z" fill="#EFEAE3"/>
</svg>
