<svg xmlns="http://www.w3.org/2000/svg" width="117" height="40" viewBox="0 0 117 40" fill="none">
  <path d="M17.8011 34.3596C18.2151 34.3596 18.3699 34.6179 18.3699 34.9282C18.3699 36.6885 15.1614 40 10.3492 40C5.17435 40 2.89753 36.6364 2.89753 30.8406V16.8687H0.206984C0.206984 16.8687 0 16.8687 0 16.6622V13.6093C0 13.3507 0.206984 13.3507 0.206984 13.3507H2.84566V6.98534C2.84566 6.77836 3.00151 6.72673 3.05338 6.72673C4.24341 6.46788 5.58832 6.31301 6.83022 6.31301C8.12424 6.31301 9.52102 6.46788 10.6594 6.72673C10.7111 6.72673 10.9183 6.77836 10.9183 7.03672V13.3505H17.0769C17.0769 13.3505 17.2832 13.3505 17.2832 13.6091V16.6101C17.2832 16.8687 17.0769 16.8687 17.0769 16.8687H10.8674V28.0461C10.8674 32.9618 11.9018 34.7214 15.1614 34.7214C16.2487 34.7217 17.2829 34.3596 17.8011 34.3596ZM20.8508 4.86436C20.8508 2.48429 23.1793 0.569327 25.9219 0.569327C28.7162 0.569327 31.0449 2.48405 31.0449 4.86436C31.0449 7.24468 28.7165 9.10729 25.9222 9.10729C23.1793 9.10729 20.8508 7.24444 20.8508 4.86436ZM21.783 34.3077V13.5574C21.783 13.4537 21.8346 13.3507 21.9892 13.2986C23.0765 13.0916 24.4735 12.9362 25.6638 12.9362C27.0603 12.9362 28.4065 13.04 29.5446 13.2986C29.5965 13.3507 29.7516 13.4023 29.7516 13.5574V30.7892C29.7516 34.2556 30.9933 34.7735 32.391 35.3426C32.7013 35.4977 32.8564 35.6529 32.8564 35.9636C32.8564 36.8429 30.9419 40 27.2159 40C23.9556 40 21.783 37.9818 21.783 34.3077ZM51.7939 34.3596C52.2079 34.3596 52.363 34.6179 52.363 34.9282C52.363 36.6885 49.1543 40 44.3423 40C39.1679 40 36.8906 36.6364 36.8906 30.8406V16.8687H34.2001C34.2001 16.8687 33.9931 16.8687 33.9931 16.6622V13.6093C33.9931 13.3507 34.2001 13.3507 34.2001 13.3507H36.8387V6.98534C36.8387 6.77836 36.9946 6.72673 37.0467 6.72673C38.2367 6.46788 39.5816 6.31301 40.8236 6.31301C42.1171 6.31301 43.5143 6.46788 44.6528 6.72673C44.7044 6.72673 44.9116 6.77836 44.9116 7.03672V13.3505H51.0693C51.0693 13.3505 51.2765 13.3505 51.2765 13.6091V16.6101C51.2765 16.8687 51.0693 16.8687 51.0693 16.8687H44.8597V28.0461C44.8597 32.9618 45.8949 34.7214 49.1545 34.7214C50.2416 34.7217 51.2762 34.3596 51.7939 34.3596ZM55.621 0.362344C56.6554 0.15536 57.9494 0 59.1908 0C60.5365 0 61.9861 0.103735 63.125 0.362344C63.1766 0.413724 63.3312 0.465835 63.3312 0.620952V17.4385H63.4866C65.1437 14.2819 68.0407 12.6784 71.5597 12.6784C77.8211 12.6784 81.7019 18.3697 81.7019 26.2356C81.7019 33.3763 77.7171 39.9484 71.1976 39.9484C67.7298 39.9484 64.7292 37.8262 63.2794 34.7217H63.1247L62.4003 38.9646C62.4003 39.2234 62.1926 39.2234 62.1409 39.2751C61.1229 39.5129 60.0812 39.6346 59.0357 39.6377C57.7419 39.6377 56.6551 39.4818 55.6207 39.2751C55.5688 39.2234 55.3619 39.1718 55.3619 39.0162V0.620952C55.3623 0.517216 55.4649 0.413724 55.621 0.362344ZM63.125 26.1313C63.125 30.4787 65.0908 34.4107 68.4547 34.4107C71.4041 34.4107 73.5774 30.9957 73.5774 26.2872C73.6295 21.0607 71.4041 17.956 68.5063 17.956C65.2981 17.9557 63.125 21.837 63.125 26.1313Z" fill="#095352"/>
  <path d="M85.3725 4.86435C85.3725 2.48428 87.7012 0.569313 90.4438 0.569313C93.2376 0.569313 95.5663 2.48404 95.5663 4.86435C95.5663 7.24466 93.2376 9.10728 90.4438 9.10728C87.7012 9.10728 85.3725 7.24442 85.3725 4.86435Z" fill="#095352"/>
  <path d="M86.304 34.3077V13.5574C86.304 13.4537 86.3558 13.3507 86.5109 13.2986C87.5975 13.0916 88.9947 12.9363 90.1848 12.9363C91.5818 12.9363 92.9274 13.04 94.0661 13.2986C94.1175 13.3507 94.2726 13.4023 94.2726 13.5574V30.7892C94.2726 34.2556 95.515 34.7735 96.9115 35.3426C97.2227 35.4977 97.3778 35.6529 97.3778 35.9636C97.3778 36.8429 95.4631 40 91.7374 40C88.4773 40 86.304 37.9818 86.304 34.3077ZM116.315 34.3596C116.729 34.3596 116.884 34.6179 116.884 34.9282C116.884 36.6885 113.676 40 108.864 40C103.689 40 101.412 36.6364 101.412 30.8406V16.8687H98.721C98.721 16.8687 98.5143 16.8687 98.5143 16.6622V13.6093C98.5143 13.3507 98.721 13.3507 98.721 13.3507H101.36V6.98534C101.36 6.77836 101.516 6.72674 101.568 6.72674C102.757 6.46788 104.103 6.31301 105.345 6.31301C106.639 6.31301 108.036 6.46788 109.174 6.72674C109.226 6.72674 109.433 6.77836 109.433 7.03672V13.3505H115.59C115.59 13.3505 115.797 13.3505 115.797 13.6091V16.6101C115.797 16.8687 115.59 16.8687 115.59 16.8687H109.381V28.0461C109.381 32.9618 110.416 34.7214 113.676 34.7214C114.763 34.7217 115.797 34.3596 116.315 34.3596Z" fill="#095352"/>
</svg>